<svg width="120" height="121" viewBox="0 0 120 121" fill="none" xmlns="http://www.w3.org/2000/svg">
<path fill-rule="evenodd" clip-rule="evenodd" d="M79.6048 107.591C78.4451 107.317 77.4443 107.081 77.4443 106.271C77.4443 105.185 78.7779 105.068 79.3513 105.068C80.1461 105.068 80.5979 105.178 81.1902 105.447C81.4776 105.235 82.7883 104.268 82.7883 104.268C81.9243 103.716 80.6267 103.285 79.3651 103.285C76.3581 103.285 75.2867 104.887 75.2867 106.386C75.2867 108.545 77.1606 108.995 78.814 109.391C79.9755 109.67 80.9784 109.911 80.9784 110.734C80.9784 111.155 80.7271 111.864 79.0435 111.864C77.926 111.864 76.7018 111.471 75.8324 110.836L75.1016 112.51C75.9874 113.202 77.5232 113.647 79.0297 113.647C81.5238 113.647 83.136 112.435 83.136 110.56C83.136 108.425 81.26 107.982 79.6048 107.591Z" fill="#161D27"/>
<path fill-rule="evenodd" clip-rule="evenodd" d="M89.9958 111.809H87.3053V109.245H89.9958C91.2243 109.245 91.8471 109.671 91.8471 110.527C91.8471 111.384 91.2414 111.809 89.9958 111.809ZM87.3053 107.577H89.6044H87.3053ZM87.3053 105.128H89.6044C91.0533 105.128 91.3574 105.798 91.3574 106.353C91.3574 107.159 90.751 107.577 89.6044 107.577H87.3053V105.128ZM92.2745 108.311L92.1709 108.277L92.2669 108.225C93.0898 107.778 93.5427 107.003 93.5427 106.042C93.5427 104.426 92.1749 103.461 89.8838 103.461H85.1484V113.476H90.1639C92.6583 113.476 94.0323 112.513 94.0323 110.765C94.0323 109.575 93.3917 108.681 92.2745 108.311Z" fill="#161D27"/>
<path fill-rule="evenodd" clip-rule="evenodd" d="M101.336 105.125L103.595 103.457H96.0352V113.472H103.595V111.805H98.1924V109.241H102.8V107.573H98.1924V105.125H101.336Z" fill="#161D27"/>
<path fill-rule="evenodd" clip-rule="evenodd" d="M107.763 105.128H109.675C111.057 105.128 111.818 105.811 111.818 107.05C111.818 108.289 111.057 108.971 109.675 108.971H107.763V105.128ZM114.133 113.476L111.937 110.222C113.232 109.656 113.979 108.54 113.979 107.045C113.979 104.834 112.348 103.461 109.721 103.461H105.605V113.476H107.763V110.639H109.721C109.783 110.639 109.843 110.637 109.904 110.636L111.82 113.476H114.133Z" fill="#161D27"/>
<path fill-rule="evenodd" clip-rule="evenodd" d="M70.2915 108.467C70.2915 107.958 70.2456 107.46 70.1583 106.976L68.3703 108.296C68.3718 108.353 68.3725 108.41 68.3725 108.467C68.3725 111.996 65.5067 114.866 61.9834 114.866C58.4609 114.866 55.5951 111.996 55.5951 108.467C55.5951 104.938 58.4609 102.067 61.9834 102.067C63.3189 102.067 64.5594 102.48 65.5852 103.184L67.2015 101.991C65.7751 100.837 63.9602 100.145 61.9838 100.145C57.3954 100.145 53.6758 103.871 53.6758 108.467C53.6758 113.063 57.3954 116.789 61.9838 116.789C66.5718 116.789 70.2915 113.063 70.2915 108.467Z" fill="#161D27"/>
<path fill-rule="evenodd" clip-rule="evenodd" d="M68.5534 103.379C68.9459 103.887 69.2813 104.441 69.549 105.033L61.9795 110.622L58.8164 108.636V106.246L61.9795 108.232L68.5534 103.379Z" fill="#161D27"/>
<path fill-rule="evenodd" clip-rule="evenodd" d="M97.6295 21.3223C96.9936 20.6853 96.6368 19.8217 96.6368 18.9209V7.88428C96.6368 6.17488 95.2533 4.78906 93.5465 4.78906H83.5083C81.8014 4.78906 80.418 6.17488 80.418 7.88428V17.9403C80.418 19.6493 81.8014 21.0355 83.5083 21.0355H94.5207C95.4199 21.0355 96.2821 21.393 96.918 22.03L96.9209 22.0329C97.5564 22.6695 97.9136 23.5331 97.9136 24.4339V88.0375C97.9136 89.7469 99.2971 91.1328 101.004 91.1328H111.042C112.749 91.1328 114.132 89.7469 114.132 88.0375V25.4123C114.132 23.7026 112.749 22.3167 111.042 22.3167H100.027C99.1276 22.3167 98.2654 21.9593 97.6295 21.3223Z" fill="#161D27"/>
<path fill-rule="evenodd" clip-rule="evenodd" d="M22.2061 57.093L22.2188 57.0802C22.8544 56.4469 23.7143 56.0912 24.6103 56.0912H51.8572C53.556 56.0912 54.9329 54.7116 54.9329 53.0099V41.9437C54.9329 41.0506 55.2883 40.1943 55.9206 39.5638L55.9326 39.5522C56.5681 38.9188 57.4281 38.5632 58.3248 38.5632H69.3528C71.0513 38.5632 72.429 37.1836 72.429 35.4818V25.3981C72.429 23.6967 71.0513 22.3167 69.3528 22.3167H58.3234C57.4241 22.3167 56.5619 21.9589 55.9264 21.3223C55.2905 20.6853 54.9329 19.8217 54.9329 18.9209V7.87044C54.9329 6.16868 53.556 4.78906 51.8572 4.78906H8.12706C6.40019 4.78906 5 6.19128 5 7.92182V17.9028C5 19.6329 6.40019 21.0355 8.12706 21.0355H52.8157C53.7161 21.0355 54.5793 21.3937 55.216 22.0314C55.8526 22.6691 56.2105 23.5338 56.2105 24.4357V36.4548C56.2105 37.3527 55.8533 38.2137 55.2178 38.8474L55.2094 38.8558C54.5742 39.4891 53.7143 39.8448 52.8183 39.8448H25.5714C23.873 39.8448 22.4957 41.2244 22.4957 42.9262V53.9835C22.4957 54.8792 22.1403 55.7381 21.5084 56.3718L21.4971 56.3824C20.8648 57.0157 20.0078 57.3717 19.1136 57.3717H8.07613C6.37727 57.3717 5 58.7514 5 60.4531V70.5368C5 72.2386 6.37691 73.6178 8.07613 73.6178H19.1249C20.0187 73.6178 20.8765 73.9735 21.5084 74.6072H21.5087C22.1406 75.2401 22.4957 76.099 22.4957 76.9944V88.051C22.4957 89.7528 23.873 91.132 25.5714 91.1324L69.3015 91.1328C71.0288 91.1328 72.429 89.7302 72.429 88V78.0191C72.429 76.2889 71.0288 74.8863 69.3015 74.8863L24.61 74.8856C23.7136 74.8856 22.8536 74.5303 22.2181 73.897L22.2061 73.8853C21.5742 73.2556 21.2188 72.3993 21.2188 71.5065V59.4721C21.2188 58.579 21.5742 57.723 22.2061 57.093Z" fill="#161D27"/>
<path fill-rule="evenodd" clip-rule="evenodd" d="M107.681 52.1641L107.641 52.1236C107.581 52.0639 107.547 51.9822 107.547 51.8977V50.7221C107.547 50.5458 107.404 50.4022 107.228 50.4022H104.356C104.271 50.4022 104.19 50.3687 104.13 50.3085L104.109 50.2874C104.049 50.2276 104.016 50.146 104.016 50.0611V47.1754C104.016 46.9983 103.873 46.8555 103.697 46.8555H102.635C102.459 46.8555 102.316 46.9983 102.316 47.1754V55.5811C102.316 55.7574 102.459 55.9006 102.635 55.9006H103.697C103.873 55.9006 104.016 55.7574 104.016 55.5811V50.3424L104.056 50.3829C104.116 50.4426 104.149 50.5243 104.149 50.6088V51.7847C104.149 51.9611 104.292 52.1043 104.469 52.1043H107.341C107.425 52.1043 107.507 52.1382 107.566 52.198L107.588 52.2191C107.647 52.2789 107.681 52.3605 107.681 52.445V55.5811C107.681 55.7574 107.824 55.9006 108 55.9006H109.061C109.237 55.9006 109.38 55.7574 109.38 55.5811V47.1754C109.38 46.9983 109.237 46.8555 109.061 46.8555H108C107.824 46.8555 107.681 46.9983 107.681 47.1754V52.1641Z" fill="white"/>
<path fill-rule="evenodd" clip-rule="evenodd" d="M107.585 43.3366L107.569 43.3527C107.508 43.4143 107.424 43.4489 107.337 43.4489H105.848H104.359C104.272 43.4489 104.189 43.4143 104.127 43.3527L104.111 43.3366C104.05 43.2751 104.015 43.1916 104.015 43.1045V38.1519C104.015 38.0649 104.05 37.9818 104.111 37.9202L104.128 37.9038C104.189 37.8422 104.273 37.8076 104.359 37.8076H107.337C107.424 37.8076 107.507 37.8422 107.568 37.9038L107.585 37.9202C107.646 37.9818 107.681 38.0649 107.681 38.1519V39.3155C107.681 39.4969 107.827 39.6434 108.008 39.6434H109.052C109.233 39.6434 109.38 39.4969 109.38 39.3155V38.27C109.38 38.0889 109.233 37.9417 109.052 37.9417H107.891C107.804 37.9417 107.72 37.9074 107.659 37.8458L107.643 37.8298C107.582 37.7682 107.547 37.6844 107.547 37.5977V36.4338C107.547 36.2527 107.401 36.1055 107.219 36.1055H104.477C104.296 36.1055 104.149 36.2527 104.149 36.4338V37.5973C104.149 37.6844 104.115 37.7679 104.053 37.8294L104.037 37.8458C103.976 37.9074 103.892 37.9417 103.805 37.9417H102.644C102.463 37.9417 102.316 38.0889 102.316 38.27V42.9864C102.316 43.1676 102.463 43.3144 102.644 43.3144H103.805C103.892 43.3144 103.975 43.349 104.037 43.4106L104.053 43.427C104.115 43.4886 104.149 43.572 104.149 43.6591V44.8227C104.149 45.0038 104.296 45.151 104.477 45.151H106.346H107.219C107.401 45.151 107.547 45.0038 107.547 44.8223V43.6591C107.547 43.572 107.582 43.4886 107.643 43.427L107.658 43.4121C107.72 43.3505 107.803 43.3159 107.89 43.3159H109.052C109.233 43.3159 109.38 43.169 109.38 42.9879V41.9421C109.38 41.761 109.233 41.6138 109.052 41.6138H108.008C107.828 41.6138 107.681 41.761 107.681 41.9421V43.1042C107.681 43.1916 107.647 43.2751 107.585 43.3366Z" fill="white"/>
<path fill-rule="evenodd" clip-rule="evenodd" d="M107.569 59.3995L107.585 59.4159C107.647 59.4775 107.681 59.5609 107.681 59.6484V64.6002C107.681 64.6877 107.647 64.7711 107.585 64.8327L107.569 64.8484C107.508 64.91 107.425 64.9446 107.337 64.945H104.359C104.272 64.945 104.189 64.9103 104.128 64.8488L104.112 64.8324C104.05 64.7708 104.016 64.6877 104.016 64.6002V59.6484C104.016 59.5609 104.05 59.4775 104.112 59.4159L104.128 59.3995C104.19 59.3379 104.273 59.3033 104.36 59.3033H107.337C107.424 59.3033 107.507 59.3379 107.569 59.3995ZM107.547 59.0934V57.9299C107.547 57.7484 107.401 57.6016 107.22 57.6016H104.477C104.296 57.6016 104.149 57.7484 104.149 57.9299V59.0934C104.149 59.1801 104.115 59.264 104.053 59.3255L104.037 59.3416C103.976 59.4032 103.893 59.4374 103.806 59.4374H102.644C102.463 59.4374 102.316 59.5846 102.316 59.7661V64.4825C102.316 64.6636 102.463 64.8109 102.644 64.8109H103.805C103.893 64.8109 103.976 64.8451 104.037 64.9067L104.053 64.9231C104.115 64.9847 104.149 65.0681 104.149 65.1552V66.3184C104.149 66.4995 104.296 66.6467 104.477 66.6467H107.22C107.401 66.6467 107.547 66.4995 107.547 66.3184V65.1552C107.547 65.0681 107.582 64.9847 107.644 64.9231L107.659 64.9078C107.72 64.8462 107.803 64.812 107.89 64.812H109.053C109.233 64.812 109.38 64.6647 109.38 64.4836V59.7661C109.38 59.5846 109.233 59.4374 109.053 59.4374H107.891C107.804 59.4374 107.721 59.4032 107.659 59.3416L107.644 59.3255C107.582 59.264 107.547 59.1805 107.547 59.0934Z" fill="white"/>
<path fill-rule="evenodd" clip-rule="evenodd" d="M107.569 70.1499L107.585 70.1663C107.647 70.2279 107.681 70.3109 107.681 70.3984V75.3506C107.681 75.4377 107.647 75.5212 107.585 75.5827L107.569 75.5988C107.508 75.6604 107.425 75.695 107.337 75.695H104.359C104.272 75.695 104.189 75.6604 104.128 75.5988L104.112 75.5824C104.05 75.5212 104.016 75.4377 104.016 75.3502V70.3984C104.016 70.3109 104.05 70.2279 104.112 70.1663L104.128 70.1499C104.19 70.0883 104.273 70.0533 104.36 70.0533H107.337C107.424 70.0533 107.507 70.0883 107.569 70.1499ZM107.547 69.8438V68.6799C107.547 68.4988 107.401 68.3516 107.22 68.3516H104.477C104.296 68.3516 104.149 68.4988 104.149 68.6799V69.8434C104.149 69.9305 104.115 70.014 104.053 70.0755L104.037 70.0919C103.976 70.1535 103.893 70.1878 103.806 70.1878H102.644C102.463 70.1878 102.316 70.335 102.316 70.5161V75.2325C102.316 75.4137 102.463 75.5609 102.644 75.5609H103.805C103.893 75.5609 103.976 75.5951 104.037 75.6567L104.053 75.6731C104.115 75.7347 104.149 75.8185 104.149 75.9052V77.0684C104.149 77.2499 104.296 77.3971 104.477 77.3971L107.22 77.3967C107.401 77.3967 107.547 77.2499 107.547 77.0684V75.9052C107.547 75.8181 107.582 75.7347 107.644 75.6731L107.659 75.6582C107.72 75.5966 107.803 75.5623 107.89 75.5623H109.053C109.233 75.5623 109.38 75.4151 109.38 75.2336V70.5161C109.38 70.335 109.233 70.1878 109.053 70.1878H107.891C107.804 70.1878 107.721 70.1535 107.659 70.0919L107.644 70.0759C107.582 70.0143 107.547 69.9305 107.547 69.8438Z" fill="white"/>
<path fill-rule="evenodd" clip-rule="evenodd" d="M104.149 25.6912V26.8548C104.149 26.9422 104.115 27.0253 104.053 27.0869L104.037 27.1029C103.976 27.1645 103.892 27.1995 103.806 27.1995H102.644C102.463 27.1995 102.316 27.346 102.316 27.5275V28.5729C102.316 28.754 102.463 28.9013 102.644 28.9013H103.806C103.892 28.9013 103.976 28.9355 104.037 28.9971L104.053 29.0135C104.115 29.0751 104.149 29.1585 104.149 29.2456V30.4091C104.149 30.5903 104.296 30.7375 104.477 30.7375H107.337C107.424 30.7375 107.507 30.7717 107.569 30.8333L107.585 30.8497C107.647 30.9113 107.681 30.9947 107.681 31.0818V32.362C107.681 32.4491 107.647 32.5321 107.585 32.5937L107.569 32.6101C107.508 32.6717 107.424 32.7063 107.337 32.7063H102.644C102.463 32.7063 102.316 32.8532 102.316 33.0343V34.0801C102.316 34.2612 102.463 34.4081 102.644 34.4081H107.219C107.401 34.4081 107.547 34.2612 107.547 34.0801V32.9166C107.547 32.8295 107.582 32.746 107.643 32.6845L107.658 32.6695C107.72 32.6079 107.803 32.5737 107.89 32.5737H109.053C109.234 32.5737 109.38 32.4265 109.38 32.245V31.1995C109.38 31.0184 109.234 30.8716 109.053 30.8716H107.891C107.804 30.8716 107.721 30.837 107.659 30.7754L107.643 30.759C107.582 30.6974 107.547 30.6143 107.547 30.5272V29.3637C107.547 29.1822 107.401 29.0354 107.219 29.0354H104.359C104.272 29.0354 104.189 29.0007 104.128 28.9391L104.111 28.9228C104.05 28.8612 104.016 28.7781 104.016 28.6906V27.4098C104.016 27.3227 104.05 27.2392 104.111 27.1776L104.128 27.1609C104.189 27.0997 104.273 27.065 104.359 27.065H109.053C109.234 27.065 109.38 26.9178 109.38 26.7367V25.6912C109.38 25.5101 109.234 25.3633 109.053 25.3633H104.477C104.296 25.3633 104.149 25.5101 104.149 25.6912Z" fill="white"/>
<path fill-rule="evenodd" clip-rule="evenodd" d="M104.128 86.3449L104.111 86.3285C104.05 86.2669 104.015 86.1838 104.015 86.0963V79.426C104.015 79.2449 103.869 79.0977 103.687 79.0977H102.644C102.463 79.0977 102.316 79.2449 102.316 79.426V85.9786C102.316 86.1597 102.463 86.307 102.644 86.307H103.805C103.892 86.307 103.976 86.3412 104.037 86.4028L104.053 86.4192C104.115 86.4808 104.149 86.5642 104.149 86.6513V87.8149C104.149 87.996 104.296 88.1432 104.477 88.1432H109.052C109.233 88.1432 109.38 87.996 109.38 87.8149V86.7694C109.38 86.5879 109.233 86.4411 109.052 86.4411H104.359C104.272 86.4411 104.189 86.4064 104.128 86.3449Z" fill="white"/>
</svg>
