<svg width="109" height="113" viewBox="0 0 109 113" fill="none" xmlns="http://www.w3.org/2000/svg">
<g id="logo">
<path id="Fill 2" fill-rule="evenodd" clip-rule="evenodd" d="M74.5153 103.568C73.357 103.294 72.3575 103.058 72.3575 102.247C72.3575 101.162 73.6894 101.045 74.2621 101.045C75.0559 101.045 75.5072 101.155 76.0987 101.424C76.3858 101.212 77.6949 100.245 77.6949 100.245C76.8319 99.6937 75.5359 99.2627 74.2759 99.2627C71.2725 99.2627 70.2025 100.864 70.2025 102.363C70.2025 104.522 72.0741 104.971 73.7254 105.367C74.8855 105.646 75.8873 105.887 75.8873 106.709C75.8873 107.131 75.6362 107.839 73.9547 107.839C72.8385 107.839 71.6159 107.446 70.7475 106.811L70.0176 108.485C70.9023 109.177 72.4363 109.622 73.9409 109.622C76.4319 109.622 78.0422 108.411 78.0422 106.536C78.0422 104.401 76.1685 103.958 74.5153 103.568Z" fill="white"/>
<path id="Fill 4" fill-rule="evenodd" clip-rule="evenodd" d="M84.8863 107.784H82.1991V105.221H84.8863C86.1133 105.221 86.7354 105.647 86.7354 106.502C86.7354 107.36 86.1304 107.784 84.8863 107.784ZM82.1991 103.554H84.4954H82.1991ZM82.1991 101.106H84.4954C85.9426 101.106 86.2463 101.775 86.2463 102.33C86.2463 103.135 85.6406 103.554 84.4954 103.554H82.1991V101.106ZM87.1623 104.287L87.0587 104.254L87.1546 104.201C87.9765 103.754 88.4289 102.98 88.4289 102.019C88.4289 100.403 87.0627 99.4385 84.7744 99.4385H80.0449V109.451H85.0542C87.5456 109.451 88.9179 108.489 88.9179 106.741C88.9179 105.551 88.2781 104.657 87.1623 104.287Z" fill="white"/>
<path id="Fill 6" fill-rule="evenodd" clip-rule="evenodd" d="M96.2199 101.102L98.4763 99.4346H90.9258V109.447H98.4763V107.78H93.0804V105.217H97.6827V103.55H93.0804V101.102H96.2199Z" fill="white"/>
<path id="Fill 8" fill-rule="evenodd" clip-rule="evenodd" d="M102.637 101.105H104.547C105.928 101.105 106.688 101.788 106.688 103.026C106.688 104.265 105.928 104.948 104.547 104.948H102.637V101.105ZM108.999 109.451L106.806 106.198C108.1 105.632 108.846 104.516 108.846 103.021C108.846 100.811 107.216 99.4385 104.593 99.4385H100.482V109.451H102.637V106.615H104.593C104.655 106.615 104.715 106.613 104.775 106.612L106.69 109.451H108.999Z" fill="white"/>
<path id="Fill 10" fill-rule="evenodd" clip-rule="evenodd" d="M65.2106 104.442C65.2106 103.934 65.1648 103.435 65.0776 102.951L63.2918 104.271C63.2932 104.329 63.294 104.385 63.294 104.442C63.294 107.97 60.4316 110.84 56.9127 110.84C53.3945 110.84 50.5322 107.97 50.5322 104.442C50.5322 100.914 53.3945 98.0442 56.9127 98.0442C58.2465 98.0442 59.4855 98.4566 60.5101 99.1608L62.1244 97.968C60.6997 96.8139 58.8871 96.1221 56.9131 96.1221C52.3303 96.1221 48.6152 99.8471 48.6152 104.442C48.6152 109.037 52.3303 112.762 56.9131 112.762C61.4955 112.762 65.2106 109.037 65.2106 104.442Z" fill="white"/>
<path id="Fill 12" fill-rule="evenodd" clip-rule="evenodd" d="M63.475 99.3545C63.8671 99.8627 64.202 100.417 64.4695 101.008L56.9092 106.596L53.75 104.61V102.221L56.9092 104.207L63.475 99.3545Z" fill="white"/>
<path id="Fill 14" fill-rule="evenodd" clip-rule="evenodd" d="M92.5166 17.3182C91.8815 16.6814 91.5251 15.8179 91.5251 14.9174V3.88351C91.5251 2.17453 90.1433 0.789062 88.4386 0.789062H78.4127C76.7079 0.789062 75.3262 2.17453 75.3262 3.88351V13.937C75.3262 15.6456 76.7079 17.0315 78.4127 17.0315H89.4116C90.3097 17.0315 91.1708 17.3888 91.8059 18.0257L91.8088 18.0286C92.4436 18.665 92.8004 19.5284 92.8004 20.429V84.0168C92.8004 85.7257 94.1822 87.1112 95.8866 87.1112H105.913C107.618 87.1112 108.999 85.7257 108.999 84.0168V21.4072C108.999 19.6978 107.618 18.3124 105.913 18.3124H94.911C94.0128 18.3124 93.1517 17.955 92.5166 17.3182Z" fill="#00FFAF"/>
<path id="Fill 16" fill-rule="evenodd" clip-rule="evenodd" d="M17.185 53.0799L17.1977 53.0672C17.8325 52.434 18.6914 52.0784 19.5863 52.0784H46.7997C48.4965 52.0784 49.8717 50.6992 49.8717 48.9978V37.9345C49.8717 37.0415 50.2267 36.1854 50.8582 35.5552L50.8702 35.5435C51.5049 34.9103 52.3638 34.5548 53.2595 34.5548H64.274C65.9704 34.5548 67.3463 33.1755 67.3463 31.4742V21.393C67.3463 19.692 65.9704 18.3124 64.274 18.3124H53.258C52.3598 18.3124 51.4987 17.9546 50.864 17.3182C50.2289 16.6814 49.8717 15.8179 49.8717 14.9174V3.86967C49.8717 2.16834 48.4965 0.789062 46.7997 0.789062H3.12323C1.39848 0.789062 0 2.19093 0 3.92104V13.8995C0 15.6292 1.39848 17.0315 3.12323 17.0315H47.7571C48.6564 17.0315 49.5186 17.3896 50.1544 18.0271C50.7902 18.6647 51.1478 19.5292 51.1478 20.4308V32.4469C51.1478 33.3445 50.791 34.2054 50.1562 34.8389L50.1479 34.8473C49.5135 35.4805 48.6545 35.836 47.7597 35.836H20.5462C18.8498 35.836 17.4742 37.2153 17.4742 38.9166V49.9713C17.4742 50.8667 17.1193 51.7254 16.4881 52.359L16.4769 52.3695C15.8454 53.0027 14.9894 53.3586 14.0963 53.3586H3.07236C1.37559 53.3586 0 54.7379 0 56.4392V66.5204C0 68.2217 1.37522 69.6006 3.07236 69.6006H14.1076C15.0003 69.6006 15.857 69.9562 16.4881 70.5898H16.4885C17.1196 71.2226 17.4742 72.0812 17.4742 72.9763V84.0302C17.4742 85.7316 18.8498 87.1105 20.5462 87.1108L64.2227 87.1112C65.9478 87.1112 67.3463 85.709 67.3463 83.9792V74.0008C67.3463 72.271 65.9478 70.8688 64.2227 70.8688L19.5859 70.8681C18.6907 70.8681 17.8318 70.5129 17.197 69.8797L17.185 69.8681C16.5539 69.2385 16.1989 68.3824 16.1989 67.4898V55.4585C16.1989 54.5656 16.5539 53.7098 17.185 53.0799Z" fill="#00FFAF"/>
<path id="Fill 18" fill-rule="evenodd" clip-rule="evenodd" d="M102.553 48.152L102.513 48.1116C102.454 48.0518 102.42 47.9702 102.42 47.8857V46.7104C102.42 46.5341 102.277 46.3906 102.101 46.3906H99.2322C99.1479 46.3906 99.0665 46.357 99.0069 46.2969L98.9858 46.2758C98.9259 46.2161 98.8925 46.1344 98.8925 46.0496V43.1646C98.8925 42.9875 98.7497 42.8447 98.5738 42.8447H97.514C97.3381 42.8447 97.1953 42.9875 97.1953 43.1646V51.5681C97.1953 51.7445 97.3381 51.8876 97.514 51.8876H98.5738C98.7497 51.8876 98.8925 51.7445 98.8925 51.5681V46.3308L98.9324 46.3712C98.9924 46.431 99.0258 46.5126 99.0258 46.5971V47.7728C99.0258 47.9491 99.1686 48.0923 99.3448 48.0923H102.213C102.298 48.0923 102.379 48.1261 102.439 48.1859L102.46 48.207C102.52 48.2668 102.553 48.3484 102.553 48.4329V51.5681C102.553 51.7445 102.696 51.8876 102.872 51.8876H103.932C104.107 51.8876 104.251 51.7445 104.251 51.5681V43.1646C104.251 42.9875 104.107 42.8447 103.932 42.8447H102.872C102.696 42.8447 102.553 42.9875 102.553 43.1646V48.152Z" fill="#212121"/>
<path id="Fill 20" fill-rule="evenodd" clip-rule="evenodd" d="M102.461 39.328L102.445 39.344C102.384 39.4056 102.301 39.4402 102.214 39.4402H100.727H99.2394C99.1529 39.4402 99.0693 39.4056 99.0079 39.344L98.9919 39.328C98.9305 39.2664 98.896 39.183 98.896 39.0959V34.1446C98.896 34.0575 98.9305 33.9745 98.9919 33.9129L99.0083 33.8965C99.0697 33.8349 99.1532 33.8003 99.2397 33.8003H102.213C102.3 33.8003 102.383 33.8349 102.445 33.8965L102.461 33.9129C102.522 33.9745 102.557 34.0575 102.557 34.1446V35.3078C102.557 35.4893 102.703 35.6357 102.884 35.6357H103.927C104.107 35.6357 104.254 35.4893 104.254 35.3078V34.2626C104.254 34.0816 104.107 33.9344 103.927 33.9344H102.767C102.68 33.9344 102.597 33.9001 102.536 33.8386L102.52 33.8225C102.458 33.761 102.424 33.6772 102.424 33.5905V32.4269C102.424 32.2458 102.277 32.0986 102.096 32.0986H99.3571C99.1761 32.0986 99.0297 32.2458 99.0297 32.4269V33.5901C99.0297 33.6772 98.9952 33.7606 98.9338 33.8222L98.9178 33.8386C98.8564 33.9001 98.7732 33.9344 98.6864 33.9344H97.5262C97.3457 33.9344 97.1992 34.0816 97.1992 34.2626V38.9779C97.1992 39.159 97.3457 39.3058 97.5262 39.3058H98.686C98.7732 39.3058 98.856 39.3404 98.9174 39.402L98.9338 39.4183C98.9952 39.4799 99.0297 39.5633 99.0297 39.6504V40.8137C99.0297 40.9947 99.1761 41.1419 99.3571 41.1419H101.224H102.096C102.277 41.1419 102.424 40.9947 102.424 40.8133V39.6504C102.424 39.5633 102.458 39.4799 102.52 39.4183L102.534 39.4034C102.596 39.3418 102.679 39.3072 102.766 39.3072H103.927C104.108 39.3072 104.254 39.1604 104.254 38.9794V37.9338C104.254 37.7527 104.108 37.6055 103.927 37.6055H102.884C102.704 37.6055 102.557 37.7527 102.557 37.9338V39.0956C102.557 39.183 102.523 39.2664 102.461 39.328Z" fill="#212121"/>
<path id="Fill 22" fill-rule="evenodd" clip-rule="evenodd" d="M102.441 55.3883L102.457 55.4047C102.519 55.4663 102.554 55.5497 102.554 55.6371V60.5878C102.554 60.6752 102.519 60.7586 102.457 60.8202L102.442 60.8358C102.38 60.8974 102.297 60.932 102.21 60.9324H99.2358C99.149 60.9324 99.0658 60.8978 99.0044 60.8362L98.9884 60.8198C98.927 60.7582 98.8924 60.6752 98.8924 60.5878V55.6371C98.8924 55.5497 98.927 55.4663 98.9884 55.4047L99.0047 55.3883C99.0661 55.3268 99.1493 55.2921 99.2362 55.2921H102.21C102.297 55.2921 102.38 55.3268 102.441 55.3883ZM102.42 55.0823V53.9191C102.42 53.7376 102.274 53.5908 102.093 53.5908H99.3532C99.1726 53.5908 99.0262 53.7376 99.0262 53.9191V55.0823C99.0262 55.169 98.9916 55.2528 98.9302 55.3144L98.9142 55.3304C98.8528 55.392 98.7696 55.4262 98.6828 55.4262H97.5227C97.3421 55.4262 97.1953 55.5734 97.1953 55.7548V60.4701C97.1953 60.6511 97.3421 60.7983 97.5227 60.7983H98.6824C98.7696 60.7983 98.8525 60.8326 98.9139 60.8941L98.9302 60.9105C98.9916 60.9721 99.0262 61.0555 99.0262 61.1426V62.3055C99.0262 62.4865 99.1726 62.6337 99.3532 62.6337H102.093C102.274 62.6337 102.42 62.4865 102.42 62.3055V61.1426C102.42 61.0555 102.455 60.9721 102.516 60.9105L102.531 60.8952C102.592 60.8337 102.675 60.7994 102.762 60.7994H103.923C104.104 60.7994 104.25 60.6522 104.25 60.4712V55.7548C104.25 55.5734 104.104 55.4262 103.923 55.4262H102.763C102.676 55.4262 102.593 55.392 102.532 55.3304L102.516 55.3144C102.455 55.2528 102.42 55.1694 102.42 55.0823Z" fill="#212121"/>
<path id="Fill 24" fill-rule="evenodd" clip-rule="evenodd" d="M102.441 66.1309L102.457 66.1473C102.519 66.2088 102.554 66.2919 102.554 66.3793V71.3303C102.554 71.4174 102.519 71.5008 102.457 71.5624L102.442 71.5784C102.38 71.64 102.297 71.6746 102.21 71.6746H99.2358C99.149 71.6746 99.0658 71.64 99.0044 71.5784L98.9884 71.562C98.927 71.5008 98.8924 71.4174 98.8924 71.3299V66.3793C98.8924 66.2919 98.927 66.2088 98.9884 66.1473L99.0047 66.1309C99.0661 66.0693 99.1493 66.0343 99.2362 66.0343H102.21C102.297 66.0343 102.38 66.0693 102.441 66.1309ZM102.42 65.8249V64.6613C102.42 64.4802 102.274 64.333 102.093 64.333H99.3532C99.1726 64.333 99.0262 64.4802 99.0262 64.6613V65.8245C99.0262 65.9116 98.9916 65.995 98.9302 66.0566L98.9142 66.073C98.8528 66.1345 98.7696 66.1688 98.6828 66.1688H97.5227C97.3421 66.1688 97.1953 66.3159 97.1953 66.497V71.2123C97.1953 71.3933 97.3421 71.5405 97.5227 71.5405H98.6824C98.7696 71.5405 98.8525 71.5748 98.9139 71.6363L98.9302 71.6527C98.9916 71.7143 99.0262 71.7981 99.0262 71.8848V73.0477C99.0262 73.2291 99.1726 73.3763 99.3532 73.3763L102.093 73.3759C102.274 73.3759 102.42 73.2291 102.42 73.0477V71.8848C102.42 71.7977 102.455 71.7143 102.516 71.6527L102.531 71.6378C102.592 71.5762 102.675 71.542 102.762 71.542H103.923C104.104 71.542 104.25 71.3948 104.25 71.2134V66.497C104.25 66.3159 104.104 66.1688 103.923 66.1688H102.763C102.676 66.1688 102.593 66.1345 102.532 66.073L102.516 66.0569C102.455 65.9954 102.42 65.9116 102.42 65.8249Z" fill="#212121"/>
<path id="Fill 26" fill-rule="evenodd" clip-rule="evenodd" d="M99.0258 21.6843V22.8476C99.0258 22.935 98.9913 23.0181 98.9299 23.0796L98.9139 23.0957C98.8525 23.1572 98.7693 23.1922 98.6828 23.1922H97.5223C97.3417 23.1922 97.1953 23.3387 97.1953 23.5201V24.5653C97.1953 24.7463 97.3417 24.8935 97.5223 24.8935H98.6828C98.7693 24.8935 98.8525 24.9278 98.9139 24.9893L98.9299 25.0057C98.9913 25.0673 99.0258 25.1507 99.0258 25.2378V26.401C99.0258 26.5821 99.1722 26.7293 99.3532 26.7293H102.21C102.297 26.7293 102.38 26.7635 102.441 26.8251L102.457 26.8415C102.519 26.9031 102.553 26.9865 102.553 27.0736V28.3534C102.553 28.4405 102.519 28.5235 102.457 28.5851L102.441 28.6015C102.38 28.663 102.297 28.6977 102.21 28.6977H97.5223C97.3417 28.6977 97.1953 28.8445 97.1953 29.0255V30.0711C97.1953 30.2522 97.3417 30.399 97.5223 30.399H102.092C102.273 30.399 102.42 30.2522 102.42 30.0711V28.9079C102.42 28.8208 102.455 28.7374 102.516 28.6758L102.531 28.6609C102.592 28.5993 102.675 28.565 102.762 28.565H103.923C104.104 28.565 104.251 28.4179 104.251 28.2364V27.1912C104.251 27.0102 104.104 26.8634 103.923 26.8634H102.763C102.677 26.8634 102.593 26.8287 102.532 26.7672L102.516 26.7508C102.455 26.6892 102.42 26.6062 102.42 26.5191V25.3558C102.42 25.1744 102.273 25.0276 102.092 25.0276H99.2358C99.149 25.0276 99.0658 24.993 99.0044 24.9314L98.988 24.915C98.927 24.8535 98.8925 24.7704 98.8925 24.683V23.4024C98.8925 23.3153 98.927 23.2319 98.988 23.1703L99.0044 23.1536C99.0658 23.0924 99.1493 23.0578 99.2358 23.0578H103.923C104.104 23.0578 104.251 22.9106 104.251 22.7295V21.6843C104.251 21.5033 104.104 21.3564 103.923 21.3564H99.3532C99.1722 21.3564 99.0258 21.5033 99.0258 21.6843Z" fill="#212121"/>
<path id="Fill 28" fill-rule="evenodd" clip-rule="evenodd" d="M99.0083 82.3245L98.9919 82.3081C98.9305 82.2465 98.896 82.1635 98.896 82.076V75.4073C98.896 75.2263 98.7496 75.0791 98.5686 75.0791H97.5262C97.3456 75.0791 97.1992 75.2263 97.1992 75.4073V81.9584C97.1992 82.1394 97.3456 82.2866 97.5262 82.2866H98.6863C98.7732 82.2866 98.8564 82.3208 98.9178 82.3824L98.9338 82.3988C98.9952 82.4604 99.0297 82.5438 99.0297 82.6309V83.7941C99.0297 83.9752 99.1761 84.1224 99.3567 84.1224H103.927C104.107 84.1224 104.254 83.9752 104.254 83.7941V82.7489C104.254 82.5675 104.107 82.4207 103.927 82.4207H99.2397C99.1525 82.4207 99.0697 82.3861 99.0083 82.3245Z" fill="#212121"/>
</g>
</svg>
